<svg width="20" height="20" viewBox="0 0 20 20" fill="none" xmlns="http://www.w3.org/2000/svg">
<path d="M4.99996 16.6666H15C15.4583 16.6666 15.8333 17.0416 15.8333 17.5C15.8333 17.9583 15.4583 18.3333 15 18.3333H4.99996C4.54163 18.3333 4.16663 17.9583 4.16663 17.5C4.16663 17.0416 4.54163 16.6666 4.99996 16.6666ZM9.99996 5.83329C9.08329 5.83329 8.33329 6.58329 8.33329 7.49996C8.33329 8.41663 9.08329 9.16663 9.99996 9.16663C10.9166 9.16663 11.6666 8.41663 11.6666 7.49996C11.6666 6.58329 10.9166 5.83329 9.99996 5.83329ZM9.99996 1.66663C12.725 1.66663 15.8333 3.71663 15.8333 7.62496C15.8333 10.1083 14.0583 12.725 10.5083 15.45C10.2083 15.6833 9.79163 15.6833 9.49163 15.45C5.94163 12.7166 4.16663 10.1083 4.16663 7.62496C4.16663 3.71663 7.27496 1.66663 9.99996 1.66663Z" fill="#333333" fill-opacity="0.7"/>
</svg>
